<svg xmlns="http://www.w3.org/2000/svg" width="48" height="48" viewBox="0 0 48 48">
  <defs>
    <linearGradient id="githubGradient" x1="0%" y1="0%" x2="100%" y2="100%">
      <stop offset="0%" stop-color="#24292e"/>
      <stop offset="100%" stop-color="#0d1117"/>
    </linearGradient>
    <filter id="shadowGithub" x="-20%" y="-20%" width="140%" height="140%">
      <feDropShadow dx="2" dy="2" stdDeviation="4" flood-opacity="0.3"/>
    </filter>
  </defs>
  <circle cx="24" cy="24" r="22" fill="url(#githubGradient)" filter="url(#shadowGithub)"/>
  <path d="M24 4C12.95 4 4 12.95 4 24c0 8.84 5.74 16.34 13.7 19 1-.18 1.37-.44 1.37-.98 0-.48-.02-2.08-.02-3.78-5.58 1.21-6.75-2.37-6.75-2.37-.91-2.31-2.22-2.93-2.22-2.93-1.82-1.24.14-1.22.14-1.22 2.01.14 3.07 2.07 3.07 2.07 1.78 3.05 4.67 2.17 5.81 1.66.18-1.29.7-2.17 1.27-2.67-4.44-.5-9.11-2.22-9.11-9.88 0-2.18.78-3.96 2.06-5.36-.21-.5-.89-2.54.19-5.29 0 0 1.68-.54 5.5 2.05A19.1 19.1 0 0 1 24 12.3c1.7.01 3.42.23 5.02.67 3.82-2.59 5.5-2.05 5.5-2.05 1.08 2.75.4 4.79.19 5.29 1.28 1.4 2.06 3.18 2.06 5.36 0 7.68-4.68 9.37-9.13 9.87.72.62 1.36 1.84 1.36 3.71 0 2.68-.02 4.84-.02 5.5 0 .54.37 1.17 1.38.97C38.26 40.33 44 32.84 44 24 44 12.95 35.05 4 24 4z" fill="#FFFFFF"/>
</svg>
