<svg xmlns="http://www.w3.org/2000/svg" width="800" height="500" viewBox="0 0 800 500">
  <defs>
    <linearGradient id="bgGradient" x1="0%" y1="0%" x2="100%" y2="100%">
      <stop offset="0%" stop-color="#37AEE2"/>
      <stop offset="50%" stop-color="#2C5530"/>
      <stop offset="100%" stop-color="#DAA520"/>
    </linearGradient>
    <linearGradient id="phoneGradient" x1="0%" y1="0%" x2="100%" y2="100%">
      <stop offset="0%" stop-color="#FFFFFF"/>
      <stop offset="100%" stop-color="#F0F0F0"/>
    </linearGradient>
    <filter id="shadow" x="-20%" y="-20%" width="140%" height="140%">
      <feDropShadow dx="4" dy="4" stdDeviation="8" flood-opacity="0.3"/>
    </filter>
    <filter id="glow" x="-50%" y="-50%" width="200%" height="200%">
      <feGaussianBlur stdDeviation="4" result="coloredBlur"/>
      <feMerge> 
        <feMergeNode in="coloredBlur"/>
        <feMergeNode in="SourceGraphic"/>
      </feMerge>
    </filter>
  </defs>
  
  <!-- Background -->
  <rect width="800" height="500" fill="url(#bgGradient)" opacity="0.9"/>
  
  <!-- Decorative Islamic Pattern -->
  <g opacity="0.1">
    <circle cx="150" cy="100" r="40" fill="#FFFFFF"/>
    <circle cx="650" cy="400" r="60" fill="#FFFFFF"/>
    <circle cx="700" cy="150" r="30" fill="#FFFFFF"/>
    <circle cx="100" cy="350" r="35" fill="#FFFFFF"/>
  </g>
  
  <!-- Phone Mockup -->
  <rect x="300" y="50" width="200" height="400" rx="25" fill="url(#phoneGradient)" filter="url(#shadow)"/>
  <rect x="310" y="80" width="180" height="320" rx="15" fill="#1a1a1a"/>
  
  <!-- Telegram Interface -->
  <!-- Header -->
  <rect x="310" y="80" width="180" height="40" fill="#37AEE2"/>
  <text x="400" y="105" text-anchor="middle" fill="#FFFFFF" font-family="Arial, sans-serif" font-size="14" font-weight="bold">بوت منبه الذكر</text>
  
  <!-- Messages -->
  <g fill="#FFFFFF" font-family="Arial, sans-serif" font-size="12">
    <!-- Bot Message 1 -->
    <rect x="320" y="140" width="140" height="25" rx="12" fill="#37AEE2"/>
    <text x="325" y="155" fill="#FFFFFF">🕌 حان وقت صلاة المغرب</text>
    
    <!-- Bot Message 2 -->
    <rect x="320" y="180" width="160" height="40" rx="12" fill="#2C5530"/>
    <text x="325" y="195" fill="#FFFFFF">📿 ذكر اليوم:</text>
    <text x="325" y="210" fill="#FFFFFF">سبحان الله وبحمده</text>
    
    <!-- Bot Message 3 -->
    <rect x="320" y="240" width="150" height="25" rx="12" fill="#DAA520"/>
    <text x="325" y="255" fill="#FFFFFF">🎧 تلاوة مباركة</text>
    
    <!-- User Message -->
    <rect x="340" y="280" width="120" height="25" rx="12" fill="#DCF8C6"/>
    <text x="345" y="295" fill="#000000">شكراً لك 🤲</text>
  </g>
  
  <!-- Telegram Logo -->
  <circle cx="400" cy="350" r="25" fill="#37AEE2" filter="url(#glow)"/>
  <path d="M385 350l10-5 10 5-5-10 5-10-10 5-10-5 5 10z" fill="#FFFFFF"/>
  
  <!-- Islamic Decorative Elements -->
  <g fill="#DAA520" opacity="0.7">
    <!-- Crescent -->
    <path d="M150 250 Q140 240 150 230 Q160 240 150 250 Q145 245 150 250" fill="#DAA520"/>
    <!-- Star -->
    <path d="M650 120 L655 130 L665 130 L657 137 L660 147 L650 140 L640 147 L643 137 L635 130 L645 130 Z" fill="#DAA520"/>
  </g>
  
  <!-- Title Text -->
  <text x="400" y="480" text-anchor="middle" fill="#FFFFFF" font-family="Arial, sans-serif" font-size="24" font-weight="bold">بوت منبه الذكر الإسلامي</text>
  
  <!-- Subtitle -->
  <text x="400" y="460" text-anchor="middle" fill="#FFFFFF" font-family="Arial, sans-serif" font-size="14" opacity="0.9">Telegram Bot • Python • Islamic Content</text>
</svg>
